<svg id="Layer_1" data-name="Layer 1" xmlns="http://www.w3.org/2000/svg" viewBox="0 0 295.79 134.84"><defs><style>.cls-1{fill:#deb742;}.cls-2{fill:#184664;}.cls-3{fill:#e7b523;}.cls-4{fill:#e4b52c;}.cls-5{fill:#285069;}.cls-6{fill:#24404f;}.cls-7{fill:#fcfdfd;}.cls-8{fill:#f6f8ec;}.cls-9{fill:#134466;}.cls-10{fill:#214964;}.cls-11{fill:#e8b420;}</style></defs><path class="cls-1" d="M240.79,166.82c-.06-.82-1.12-1.86.53-2.52,8.37-3.37,10.3-8.34,18.4-11.87,2.58-1.13,7.67-3.83,4.58-5.2s-7,.44-11.11,2.5c-4.95,2.46-12.81,3.87-11.8,7.78-4,.82-2.86-2-6.78-.76,3.66-3,9.62-5,14.52-7.37,9.82-4.78,20.21-9.25,30.44-13.79,2.38-1.05,5.09-3.17,7.73-2.22,2.94,1.07-.51,3-2.87,4.62-10.15,6.95-20.4,13.88-30.58,20.83C249.8,161.58,246.24,164.48,240.79,166.82Z" transform="translate(-2.11 -70.81)"/><path class="cls-1" d="M275.15,202.38c-.11,0-.24.14-.32.11s-.09-.2-.13-.31c.11,0,.24-.14.31-.1S275.1,202.27,275.15,202.38Z" transform="translate(-2.11 -70.81)"/><path class="cls-2" d="M170.48,108.4l8.1.06c2.14,0,3.14,1,3.19,3.21,0,1.41,0,2.83,0,4.23q0,18-.06,36c0,1.41,0,2.79-1.46,3.49s-2.78.14-4-.84Q160,141.88,143.59,129.23a3,3,0,0,0-1.94-.7c-1.86.06-3.73.07-5.59.1H93.62l-5,0c-.69.54-.4,1.31-.4,2,0,3.8,0,7.59,0,11.38,0,.69-.23,1.43.32,2,.06.85.69.74,1.26.73l6.91-.06c4.72.87,8.3-1.37,11.64-4.25a3.22,3.22,0,0,0,2.29-1,22.75,22.75,0,0,0,4.65-2.83,20.4,20.4,0,0,0,5.4-3.27l0,0c.88.14,1.4-.57,2.07-.9,2.58-1.3,4.77-.17,4.78,2.69q.06,20.64,0,41.28a2.83,2.83,0,0,1-4.27,2.68c-1.33-.63-2.59-1.42-3.87-2.14-5.74-3.24-11.36-6.71-17.24-9.72a1.32,1.32,0,0,0-1.1-.67q-5.85,0-11.7,0c-.53,0-.91.08-.84.87a30.73,30.73,0,0,1,0,3.59c0,1.83,0,3.66,0,5.5-.7,1.9-.35,3.85-.22,5.78a1.45,1.45,0,0,0,.23-.19c0-.05,0-.13,0-.19l.37,0c.07.87.89,1,1.41,1.39,4,2.71,7.9,5.65,11.72,8.65,1.44,2.44,4,3.56,6.12,5.27a17.36,17.36,0,0,0,2.93,2.37c2.36,1.22,2.92,3,1.76,5.46H100.38L3.54,205c-2-1.76-1.93-3.41.39-5.14Q15.45,191.31,27,182.8a3,3,0,0,0,1.39-2.68q-.08-23.16,0-46.3A2.92,2.92,0,0,0,27,131.16c-7.68-5.62-15.31-11.3-23-16.94-1.26-.93-2.28-1.93-1.74-3.68s2-2.1,3.64-2.09q48.17,0,96.34,0c.58,0,1.15,0,1.73,0h32.1l4.68,0,16.92,0Zm-137.78,20a5.94,5.94,0,0,0,1.37,4v49.41a7.38,7.38,0,0,0-1.49,3.84q-8.31,6.19-16.6,12.4c-.71.54-1.71.85-1.91,1.92.57.63,1.33.36,2,.36q41.22,0,82.45,0c.68,0,1.43.27,2-.35l2.72-.19c-.88-.7-1.5-1.23-2.15-1.71-5.42-4-10.83-8.05-16.3-12a4.34,4.34,0,0,1-2-3.9c.06-5.85,0-11.7,0-17.55,0-2.9.92-3.84,3.79-3.86,4.63,0,9.27,0,13.9,0a7.85,7.85,0,0,1,4.2,1.11q7.74,4.5,15.57,8.89c.42.23.88,1.15,1.54.25.5-.47.33-1.08.34-1.64q0-13.41,0-26.8c0-.56.16-1.17-.33-1.64,0-1.45-.58-1.11-1.43-.6-5.19,3.07-10.41,6.11-15.6,9.19a5.65,5.65,0,0,1-2.91.87c-5.15,0-10.3,0-15.44,0-2.61,0-3.62-1.1-3.62-3.69q0-10,0-20.06c0-2.84,1-3.8,3.85-3.8q28,0,56,0a5.16,5.16,0,0,1,3.35,1.16c6.23,4.87,12.5,9.7,18.75,14.55l11,8.48a3.08,3.08,0,0,0,.28-2c0-9.64,0-19.29.06-28.94,0-1.62-.54-1.85-2-1.85q-78.69,0-157.37,0h-3l18.07,13.55C31.85,128.32,32.13,128.56,32.7,128.42Zm-3.38,4.26h-.38v48.86h.38Z" transform="translate(-2.11 -70.81)"/><path class="cls-3" d="M244.31,151h.76c3.18.06,5.76-1.75,8.58-2.81,3-1.14,6.11-2.18,9.1-3.43,1.38-.58,3-.91,3.92-2.28h0c.95-.1.53,1.23,1.47,1.36,0-2.19,1.87-1.8,3.13-2.39,1.05-.49,2-.88,2.65.27s-.7,1.84-1.35,2.07c-2,.7-2.77,3-4.85,3.6-.42.11-.24.8-.28,1.24q-9.24,7.34-18.48,14.68-7.68,6.08-15.37,12.12a1.5,1.5,0,0,0-.7,1.08c1.7.09,3.39.26,5.08.26,8.55,0,17.1-.11,25.65-.16a6.4,6.4,0,0,1,1.15.11c.49.1,1.11.09,1.26.71s-.31,1-.84,1.34c-2.95,1.68-5.89,3.38-8.83,5.06l-15,8.54a5.28,5.28,0,0,1-.89.34c-1.14-.32-1.85.69-2.82.94-.4.1-1,.56-.8,1.14a1.41,1.41,0,0,0,1.14.94c2.76.18,5.4,1.2,8.1,1.46,3.33.33,6.56,1,9.83,1.53s6.83,1.15,10.24,1.54c3.06.35,6.09,1.42,9.24.94a1.79,1.79,0,0,1,.76.06,34.85,34.85,0,0,0,9.83,1.49c-.05.43-.32.57-.71.76-2.23,1.05-4.6.75-6.93.75q-32.9,0-65.78,0c-.77,0-1.87-.58-2.29.73l-.76,0a.71.71,0,0,0-.76-.74l0-1.54c.7,0,1.24,0,1.63-.89a2.11,2.11,0,0,0-.83-3c-.86-.53-1.08-1.3-.62-1.93.61-.84.84.12,1.16.51a.45.45,0,0,0,.68.09c.49-.46.26-1.08.28-1.64,0-.31-.11-.82-.47-.62-1.35.76-1-.32-1-.91s.11-1.22-.54-1.74c-.91-.73-.93.89-1.6.57-.8-2.68-1.3-5.36-2.63-7.85-.48-.92-2.95-2.38-.16-3.68a.63.63,0,0,0-.1-.49c-.71-.6-.7-1.77-1.7-2.27a1.15,1.15,0,0,0,.22,1.51c.25.22.42.56.1.82a.64.64,0,0,1-1-.24,4,4,0,0,0-1.74-2.53c-.21-.11-.12-.66.33-.67s.94.33,1-.41a1.42,1.42,0,0,0-1-1.47c-1.39-.35-1.72-1.37-2-2.52.59-1.58-1.5-1.82-1.55-3.09.26-.07.73-.07.53-.48s-.86-.21-1.3-.28c-.34-.4-.8-.84-1.27-.54s-.29.91.11,1.3c.81.78,0,1.54,0,2.31l-.34-.45c-1-1.32-.93-3.5-3.47-3.64-.7,0-3.41-.32-2.06-2.74.08-.14-.17-.66-.21-.65-1.82.23-2.63-1.93-4.45-1.81-1.66.12-3.52.47-4.54-1.51-.26-.57,1.08-.86.32-1.43-.48-.35-.94.12-1.33.49-.12.11-.35.11-.53.17.11-.89-1.27-.66-1.16-1.54.39-.41.24-.7-.25-.74-.82-.06-1.64,0-2.45,0v-.77h0c1.59.19,3.26-.46,4.77.66a.86.86,0,0,0,1.41-.66c.23-1.09,1.06-.91,1.81-.85s1.56.33,2-.84a4.91,4.91,0,0,0-1.7-.3c-1.84.39-1.23-.18-.84-1.33a14.36,14.36,0,0,0,1.1-4.92c-.11-9.18-.06-18.35,0-27.52,0-.72-.52-1.76.74-2.07v24.44c1-.57.77-1.29.77-1.94,0-7.13,0-14.26,0-21.39,0-.68-.43-1.64.75-1.88a.71.71,0,0,0,.77.77c1.07.18.76,1,.77,1.67,0,2.88,0,5.76,0,8.63,0,4.55,0,4.55,1.62,7.9A1.22,1.22,0,0,0,190,139c.31,0,.69,0,.83-.33.3-.71-.35-.87-.76-1.09-.75-.38-.6-1-.62-1.67,1.43,1.51,3,1.52,4.63.39.1.45-.23,1,.51,1.4.3-.69.44-1.22-.51-1.4-.11-2.91,1.5-.65,2.32-.77a.7.7,0,0,0,.77.77c.1.45-.23,1,.45,1.38.43-.39.29-.91.32-1.38V135.1a.78.78,0,0,0,.71-1.19c-.86-1,.14-1.79.07-2.67h0c3.07-.83,3.12-.84,2.46-3.89-.23-1.1.56-1.23,1-1.72.8.35,0,1.4,1.07,1.58-.12-.66,1.16-.86.44-1.71s-.45-1.65.39-2.43,1.84-1.63,1.61-3h0c.55,0,1.15.22,1.57-.35h1.16l.39.39a3,3,0,0,0,2.32-.77c.41,0,.71-.21.74-.68a.72.72,0,0,0-.74-.87h0c.86-1.47.15-3.93,2.75-4.34.29,0,.42-.56.15-.81-1.26-1.19.32-1.62.69-2.41l.27,1.39v1.54a.7.7,0,0,0,.77.77c.28-.05.67-.05.58-.47,0-.13-.38-.2-.58-.3h0v-1.54h1.55v1.54a.7.7,0,0,0,.77.77c.08.6-.26,1.42.78,1.55l1.43-.5c.15,1,.37,2-.94,2.3-1.48.31-1.59,1-.84,2.11.16.25.36.74.26.85-1.51,1.62-1,4.29-3,5.66a2,2,0,0,1-.69-2.19c.1-.69.25-1.77-.63-1.94s-1.47-1.07-2.38-1.61c-.23,1.63-.61,3.08,1.65,3.1.36,0,.46.39.51.71-1.22.6-.82,1.94-1.88,3.19l1.88-.88c-.3,1,.56,1.53.77,2.32-.6,1.62,0,4.05-3.36,4a2.18,2.18,0,0,1,.83,3.35,5.09,5.09,0,0,0-.54,2.69h0c-1.19.2-2.62-.1-3.12,1.52-.28.06-.67.06-.57.47,0,.14.37.21.57.3,1.26.48.72,1.29.57,2.08-.82-.06-.31-1.05-1.22-1.05-.37,1.18.2,2.6-.75,3.74-.34.43.52.46.86.67,1.08.65,2.67-.22,3.63,1.21v-2.67l25.37-14.72c.47-.27,1.05-.71,1.55-.09a1.39,1.39,0,0,1-.1,1.62c-1.21,2.17-2.43,4.33-3.65,6.5a67.69,67.69,0,0,0-6.11,10.44,30.11,30.11,0,0,0-3.21,5.66,22.82,22.82,0,0,0-3.36,5.65l16.09-6.4C240.4,152.73,242.51,152.2,244.31,151Zm-37.89-12.37c-.28.06-.66,0-.57.47,0,.13.37.2.57.3s.2.53.35.56.38-.24.4-.49A.71.71,0,0,0,206.42,138.58ZM185.56,154c-1.89,1.26.51,1.85.39,2.83.84-1.1,0-1.92-.39-2.83,1-.18.81-.71.51-1.39C185.33,153,185.66,153.57,185.56,154Zm.21-3.35h.31V145l-.31,0Zm19.07-19.77c0-.44-.17-.73-.64-.76s-.76.12-.81.58.15.86.72.86A.64.64,0,0,0,204.84,130.9Zm4.58,17c-.28,0-.61.2-.49.41a2.33,2.33,0,0,0,.93.86c.26.12.38-.25.38-.5C210.26,148.09,210,147.85,209.42,147.87Zm-.81,40.45a.79.79,0,0,0-.87-.27.49.49,0,0,0-.45.52c0,.5.42.58.82.54S208.69,188.88,208.61,188.32Zm8.25-68.06c-.39,0-.47.37-.59.64s0,.63.43.61.51-.32.5-.67S217.2,120.33,216.86,120.26Zm-11.37,55.66-.32-.14c0,.11-.15.24-.12.32s.19.09.3.14C205.39,176.13,205.44,176,205.49,175.92Zm68.77,26.46c0-.11-.05-.27-.13-.3s-.21.06-.31.1.06.27.13.31S274.16,202.42,274.26,202.38ZM205.5,123.63c0-.11-.06-.28-.13-.31s-.21.07-.32.11.06.27.14.31S205.4,123.67,205.5,123.63Zm-12.36,40.15c0-.11-.06-.28-.13-.31s-.21.07-.32.11c0,.11.06.27.13.31S193,163.82,193.14,163.78Z" transform="translate(-2.11 -70.81)"/><path class="cls-4" d="M198.7,173.32c.28,1.15.61,2.17,2,2.52a1.42,1.42,0,0,1,1,1.47c-.08.74-.61.4-1,.41s-.54.56-.33.67a4,4,0,0,1,1.74,2.53.64.64,0,0,0,1,.24c.32-.26.15-.6-.1-.82a1.15,1.15,0,0,1-.22-1.51c1,.5,1,1.67,1.7,2.27a.63.63,0,0,1,.1.49c-2.79,1.3-.32,2.76.16,3.68,1.33,2.49,1.83,5.17,2.63,7.85.67.32.69-1.3,1.6-.57.65.52.46,1.13.54,1.74s-.3,1.67,1,.91c.36-.2.48.31.47.62,0,.56.21,1.18-.28,1.64a.45.45,0,0,1-.68-.09c-.32-.39-.55-1.35-1.16-.51-.46.63-.24,1.4.62,1.93a2.11,2.11,0,0,1,.83,3c-.39.93-.93.88-1.63.89-.08-.59.26-1.4-.75-1.54-1.21-11.39-5.78-21.19-14.2-29A43.75,43.75,0,0,0,168,160.51a40.24,40.24,0,0,0-14.86,1.22,11.58,11.58,0,0,0-5.05,1.54c-13.89,5.43-22.89,15.39-27.15,29.62a41.91,41.91,0,0,0-1.56,9.86c-.15,2.9-.25,2.95-3.22,2.86a4.87,4.87,0,0,1-2.44-.43c1.43-1.9,1.64-3.56.28-4.6-3.9-3-7.9-5.81-11.86-8.7s-7.68-5.94-11.72-8.65c-.52-.35-1.34-.52-1.41-1.39,0-1.73,0-3.46,0-5.2,1.93-.47,4,.42,6-.46L89,171a8.68,8.68,0,0,0,0-1.35c-.28-1.86.3-2.61,2.37-2.5,3.6.18,7.21,0,10.81,0,5.88,3,11.5,6.48,17.24,9.72,1.28.72,2.54,1.51,3.87,2.14a2.83,2.83,0,0,0,4.27-2.68q.06-20.64,0-41.28c0-2.86-2.2-4-4.78-2.69-.67.33-1.19,1-2.07.9.32-.83,1-1.76-.81-1.68a2.12,2.12,0,0,1-1.6-.86c-.7-1.08-1.58-.76-2.51-.62-.54.08-1.25-.1-1.25.78s.72.83,1.26.75c1.67-.23,2.82.16,2.92,2.72.2-2.83,1.23-1.32,2-1.07a20.4,20.4,0,0,1-5.4,3.27,52.25,52.25,0,0,1-3.13-7.91h17.66l5.62,7.49c-.78.21-.9.8-.88,1.5,0,.92-.61,1-1.31,1s-1-.41-1-1.1.17-1.24-.37-1.89c-.8.86,0,2.1-.94,2.94-.6-2.06.2-4.07-.52-6-.88.51-.18,1.95-.82,1.82-2.15-.42-1.16,1.2-1.16,1.79-.07,10.34-.05,20.68-.05,31,0,1.71.48,3.38.07,5,2.3,0,2.25-1.65,2.63-3.34.52,2.5,1.63,0,2.32.69s1.18.51,1.55-.17c.56-1-.75-.7-1-1.24s-1.14-.46-.85-1.24,1.08-.55,1.66-.48.94.43,1.43.52c.81.15,1.79.72,2.23-.59,1.76.06,2.87-1.39,4.4-1.72.07-.75-1.18-.15-.79-1,.23-.52.8-.43,1.19-.32a3.27,3.27,0,0,0,3-.58c-.64-.13-.93-.2-1.22-.23-.51-.05-1.08,0-1.15-.7s.54-.69,1-.94a5.52,5.52,0,0,1,5.4-.13,3,3,0,0,0,2.79-.14c-.53-.54-1.51-.28-1.49-1.18h3.06c.25.83.7.94,1.5.43-.47-.54-1-.39-1.5-.43.22-.89-.27-1.49-1.42-2.11,1.4-.12,2.48-.75,2.93.47.51,1.42,1.62.59,2.4.91s1.74,1.36,2.16-.52c.11-.49,1-.25,1.54-.06a26.86,26.86,0,0,0,5.6,1.33c1.86.18,3.46-1.31,5.36-.78.14.49-.7,1.37.13,1.41,1.1.05,2.52.93,3.35-.64h.77c-.11.88,1.27.65,1.16,1.54-.45.13-1.16-.3-1.39.77h2.93c1,2,2.88,1.63,4.54,1.51,1.82-.12,2.63,2,4.45,1.81,0,0,.29.51.21.65-1.35,2.42,1.36,2.71,2.06,2.74,2.54.14,2.47,2.32,3.47,3.64l.34.45C197.15,173.59,197.27,173.61,198.7,173.32Zm-73.76-42.47c.52,0,1.06,0,1.08-.74s-.5-.78-1-.78-1.22,0-1.17.83S124.43,130.83,124.94,130.85Zm-8.66,3.33c-.18-.47-.33-1-1-1-.24,0-.62,0-.56.32a1.4,1.4,0,0,0,1.09,1.11C116.08,134.69,116.28,134.49,116.28,134.18ZM130.11,174c.65-.28,1-.57,1.15-1.11a.56.56,0,0,0-.41-.26C130.27,172.77,130.09,173.21,130.11,174Z" transform="translate(-2.11 -70.81)"/><path class="cls-4" d="M205.62,120c.23,1.42-.75,2.26-1.61,3s-1.2,1.45-.39,2.43-.56,1-.44,1.71c-1-.18-.27-1.23-1.07-1.58-.39.49-1.18.62-1,1.72.66,3.05.61,3.06-2.46,3.89,0-.64.54-.8,1-1.08.81-.53.75-1.14,0-2.27.13,1.36-.72,1.56-1.2,2.06s-.85,1,.24,1.29c.07.88-.93,1.68-.07,2.67a.78.78,0,0,1-.71,1.19c-.68-.53-1.27-.7-1.54.39-.82.12-2.43-2.14-2.32.77h0c-1.65,1.13-3.2,1.12-4.63-.39v-3.46c1.34.09,1.56-.72,1.55-1.83,0-3.51,0-7,0-10.53v-5.79c0-1.65,0-3.3,0-5,0-.73.18-1.55-1-1.62s-1.35.63-1.29,1.55c-.2.79-1.07,1.36-.77,2.31-1.37,1.17-3.11,2.08-3.09,4.25a1.5,1.5,0,0,0-1.54,1.93.7.7,0,0,0,.77.77v1.55c-1.26.31-.74,1.35-.74,2.07,0,9.17-.09,18.34,0,27.52a14.36,14.36,0,0,1-1.1,4.92c-.39,1.15-1,1.72.84,1.33a4.91,4.91,0,0,1,1.7.3c-.44,1.17-1.25.89-2,.84s-1.58-.24-1.81.85a6.09,6.09,0,0,1-1.61-.38c-1.46-.45-2.49-2.29-4.36-1.4-.38-.89-1.79,0-2-1.1-.27-1.61-2.55-.87-2.76-2.47a2.65,2.65,0,0,0-.71.19c-.32.18-.63.61-.86,0a.66.66,0,0,1,.4-.94c.42-.16.87-.26.93-1-1,.12-1.93-.49-3.07.08-.54.27-1.82.65-2.21-.68,2.54,0,2.57,0,1.92-2.28-.7.81-1.62,1.24-1.92,2.28-1.76.07-2.33-.89-2.33-2.52,0-3-.59-3.62-3.49-3.66a1.84,1.84,0,0,1-1.85-1.4,2.26,2.26,0,0,0-2.09-1.66,1.48,1.48,0,0,1-1.25-.74c-.62-1.1-.62-2.8-2.61-2.61-.3,0-.25-.66-.29-1-.12-1.08-.54-1.64-1.53-.71s-1.36.21-1.93-.33c-1.61-1.53-2.83-3.67-6.09-3.1,1.1-1,2.24-.93,2.34-2-.55-.32-1.07-.67-1.63-.93-.32-.14-.86-.3-.92.25s.72,1.12-.44,1.14c-.66,0-1.27,0-1.43-.88s-.83-.73-1.38-.56-.5.8-.37,1.3a7.58,7.58,0,0,1-.52,5.55h0l-.88-.15c0-2.49,0-5,.05-7.48,1.86,0,3.73,0,5.59-.1a3,3,0,0,1,1.94.7q16.33,12.68,32.65,25.37c1.27,1,2.54,1.57,4,.84s1.46-2.08,1.46-3.49q0-18,.06-36c.09.31.18.6.37,1.2l2.64-4.56c1.73-3,3.43-6,5.19-8.93.34-.56.63-1.46,1.54-1.13s.7,1.15.7,2c-.09,6.62-.09,13.24-.11,19.86,0,3.22,0,6.43,0,9.65,0,.51,0,1.16.49,1.38.65.31.83-.48,1.11-.82q5.53-6.87,11-13.8C205,120.42,205.17,120.06,205.62,120Z" transform="translate(-2.11 -70.81)"/><path class="cls-4" d="M113.65,108.4H104c-1.25-3.48-2.52-7-3.75-10.44-.44-1.23-.81-2.48-1.21-3.72-.15-.67.38-1.64-.78-1.86h0c.46-1.33-.84-2.4-.62-3.75,1,.1,1.21,1.32,2.13,1.37v0a.74.74,0,0,0,.67.81l.06.1c.06,1.61,1.21,2.34,2.32,3.09Q108.57,101,113.65,108.4Z" transform="translate(-2.11 -70.81)"/><path class="cls-1" d="M170.48,108.4H157.71c.76-6.68,1.85-13.3,2.91-19.93.87-5.38,1.66-10.77,2.5-16.15.1-.63-.12-1.59,1-1.51.86.05,1.09.72,1.2,1.49Q167.88,90.36,170.48,108.4Zm-5.81-33.79a2.13,2.13,0,0,0-1.53,2.4c0,1.92.55,4-.26,5.72-1.59,3.35-1.73,6.89-2.07,10.44-.07.77.8,1.46.48,1.93-1.23,1.81-.62,4.15-1.45,5.76-1.23,2.39.49,4.16.32,6.22-.07.76.85.6,1.39.6,2,0,4.11-.05,6.17,0,1.27,0,1.72-.41,1.63-1.67a40.67,40.67,0,0,0-1.06-7.44c-.46-1.76-.23-3.54-.74-5-.77-2.21-.75-4.5-1.1-6.66-.44-2.82-1.5-5.67-1-8.63,0-.24,0-.68-.12-.73C163.82,77,164.53,75.83,164.67,74.61Z" transform="translate(-2.11 -70.81)"/><path class="cls-5" d="M3.54,205l96.84,0h12.54c0,.12,0,.24,0,.35a5.05,5.05,0,0,1-2.28.27H6.26C5.32,205.59,4.32,205.78,3.54,205Z" transform="translate(-2.11 -70.81)"/><path class="cls-1" d="M208,201.12c1,.14.67.95.75,1.54s0,1,0,1.54a.65.65,0,0,0,.76.74l.76,0h82.3c1.08,0,2.18.12,1.92-1.52.57,0,1.15,0,1.73,0,.78,0,1.69.08,1.66,1.14s-.94,1-1.73,1H211.5c-3.53,0-3.53,0-3.55-3.56C208,201.76,208,201.44,208,201.12Z" transform="translate(-2.11 -70.81)"/><path class="cls-4" d="M294.5,203.46c.26,1.64-.84,1.52-1.92,1.52h-82.3c.42-1.31,1.52-.72,2.29-.73q32.9,0,65.78,0c2.33,0,4.7.3,6.93-.75.39-.19.66-.33.71-.77,2.7.4,5.37,1.11,8.14.75A.41.41,0,0,1,294.5,203.46Z" transform="translate(-2.11 -70.81)"/><path class="cls-4" d="M211.85,138.6a5.09,5.09,0,0,1,.54-2.69,2.18,2.18,0,0,0-.83-3.35c3.35,0,2.76-2.4,3.36-4,1-.13.7-.93.76-1.54v-1.16c2-1.37,1.5-4,3-5.66.1-.11-.1-.6-.26-.85-.75-1.13-.64-1.8.84-2.11,1.31-.27,1.09-1.32.94-2.3l-1.43.5c-.12-1.45.88-3.35-1.55-3.86h0c0-.83.07-2.15,1.22-1.31,1.75,1.29,2.34-.2,2.52-1,.22-1,.57-1.54,1.47-1.75-.23-.7-.89-.4-1.14-.8-.39-.64-.05-1.07.42-1.48.3-.26.67-.6.84,0,.26.89.68,1.21,1.5.67s.77-1.11.41-2-.92-1.85.49-2.38l1.51-.78.05,1.21c-1.41,3.75-2.76,7.52-4.24,11.25q-4.39,11.11-8.92,22.18C212.92,136.47,212.79,137.74,211.85,138.6Z" transform="translate(-2.11 -70.81)"/><path class="cls-4" d="M214.92,111.56l-.27-1.39c-.37.79-2,1.22-.69,2.41.27.25.14.76-.15.81-2.6.41-1.89,2.87-2.75,4.34-1.19-.38-1.48.69-1.89,1.32-.64-.21-.21-1.29-1-1a1.46,1.46,0,0,0-1,1.63c-.42.57-1,.35-1.57.35.88-2.1,2.57-3.63,3.94-5.36,3.29-4.15,6.38-8.46,9.95-12.38a6.22,6.22,0,0,0,.83-.38c1.68-1,2.38-3,3.84-4.24.46.59,1.75-.73,1.7.63,0,.45.66,1.87-.91,1.69-1.68.39-1.85,2.28-3.1,3.09,0-.25,0-.53-.36-.58-.07,0-.22.15-.21.22,0,.33.32.32.57.36-1.41.72-2,2.07-2.56,3.41-.1.23-.55.28-.77.49a8.49,8.49,0,0,0-2.85,4.59h-.77Z" transform="translate(-2.11 -70.81)"/><path class="cls-1" d="M297.81,204c-2.94.39-5.78-.37-8.65-.78a37.14,37.14,0,0,1-10.47-1.57,1.85,1.85,0,0,0-.81-.07c-3.35.52-6.58-.62-9.83-1-3.63-.4-7.29-1-10.9-1.62s-6.92-1.28-10.47-1.62c-2.86-.27-5.67-1.35-8.62-1.54a1.5,1.5,0,0,1-1.21-1c-.23-.61.43-1.09.85-1.2,1-.27,1.79-1.34,3-1-.53,1-1.93,1-2.49,2,.38.78,1.18.64,1.78.73,7.14,1.06,14.29,2,21.43,3.1,6.35.93,12.69,1.93,19,2.86q7.1,1,14.2,2A8.31,8.31,0,0,1,297.81,204Z" transform="translate(-2.11 -70.81)"/><path class="cls-1" d="M224.18,97.65c-1.46,1.25-2.16,3.19-3.84,4.24a6.22,6.22,0,0,1-.83.38c2.92-4.64,6.62-8.68,10.06-12.91.34-.42.89-1.07,1.64-.53a.91.91,0,0,1,.31,1.2c-1.78,3.92-2.77,8.18-5,11.92,0-.4,0-.81-.05-1.21l0-.76a.69.69,0,0,0,.75-.78,10.65,10.65,0,0,1,.4-1.62c.41-1.65,1.75-3.2.86-5.29Z" transform="translate(-2.11 -70.81)"/><path class="cls-1" d="M140.79,108.37l-4.68,0c0-1.67,0-3.33,0-5,0-.44,0-.94.53-1.1a1.06,1.06,0,0,1,1.31.52C138.91,104.65,140.46,106.2,140.79,108.37Z" transform="translate(-2.11 -70.81)"/><path class="cls-4" d="M208.74,140.12c.5-1.62,1.93-1.32,3.12-1.52-.16,2-1.39,3.63-1.88,5.51-.13.51-.87,1-.3,1.51.42.33,1-.1,1.48-.47a2.5,2.5,0,0,1,.67-.28v2.67c-1-1.43-2.55-.56-3.63-1.21-.34-.21-1.2-.24-.86-.67.95-1.14.38-2.56.75-3.74.91,0,.4,1,1.22,1.05.15-.79.69-1.6-.57-2.08Z" transform="translate(-2.11 -70.81)"/><path class="cls-6" d="M112.93,205.33c0-.11,0-.23,0-.35,1.16-2.44.6-4.24-1.76-5.46a17.36,17.36,0,0,1-2.93-2.37c-2.07-1.71-4.68-2.83-6.12-5.27,4,2.89,8,5.73,11.86,8.7,1.36,1,1.15,2.7-.28,4.6Z" transform="translate(-2.11 -70.81)"/><path class="cls-1" d="M103.74,95.43c-1.72.23-3.82-6.06-5.82-6.05,1.54,7.13,5.41,12,6.46,19.16-3.14-4.3-5-11.76-7.59-17.4a10.55,10.55,0,0,1-1-5.61c.39-1.51,1.25-1.53,2.44.27C100.15,88.64,102.13,90.82,103.74,95.43Z" transform="translate(-2.11 -70.81)"/><path class="cls-1" d="M100.46,91.52a.72.72,0,0,1-.67-.78A.71.71,0,0,1,100.46,91.52Z" transform="translate(-2.11 -70.81)"/><path class="cls-7" d="M31.81,127.76,13.74,114.21h3q78.68,0,157.37,0c1.42,0,2,.23,2,1.85-.09,9.65,0,19.3-.06,28.94a3.08,3.08,0,0,1-.28,2l-11-8.48c-6.25-4.85-12.52-9.68-18.75-14.55a5.16,5.16,0,0,0-3.35-1.16q-28,0-56,0c-2.86,0-3.85,1-3.85,3.8q0,10,0,20.06c0,2.59,1,3.66,3.62,3.69,5.14,0,10.29,0,15.44,0a5.65,5.65,0,0,0,2.91-.87c5.19-3.08,10.41-6.12,15.6-9.19.85-.51,1.48-.85,1.43.6V171c-.66.9-1.12,0-1.54-.25q-7.81-4.4-15.57-8.89a7.85,7.85,0,0,0-4.2-1.11c-4.63.06-9.27,0-13.9,0-2.87,0-3.79,1-3.79,3.86,0,5.85,0,11.7,0,17.55a4.34,4.34,0,0,0,2,3.9c5.47,3.95,10.88,8,16.3,12,.65.48,1.27,1,2.15,1.71l-2.72.19c-.51,0-1-.08-1.53-.08H27c-4.31,0-8.62,0-12.93.07.2-1.07,1.2-1.38,1.91-1.92q8.28-6.23,16.6-12.4c1.63-.83,1.65-2.3,1.49-3.84V132.4c.11-1.52.28-3.06-1.37-4Z" transform="translate(-2.11 -70.81)"/><path class="cls-7" d="M112.16,128.62a52.25,52.25,0,0,0,3.13,7.91,22.75,22.75,0,0,1-4.65,2.83c-.69-.06-1.54.11-2-.22-2.29-1.52-5-2.46-6.92-4.44-1-1.07-1.9-1.35-3.15-.7a.23.23,0,0,1-.26-.11,2.52,2.52,0,0,0-1.43-1.67,6,6,0,0,1-3.21-3.61Z" transform="translate(-2.11 -70.81)"/><path class="cls-4" d="M98.26,133.89a.23.23,0,0,0,.26.11,10.19,10.19,0,0,0,2.36,1.59c2.49,1.6,5.33,2.65,7.47,4.8-3.34,2.88-6.92,5.12-11.64,4.25.06-.57-.32-.95-.58-1.39q-3.41-6-6.8-12c-.32-.56-.7-1.24-.16-1.76s1.18-.06,1.74.27Z" transform="translate(-2.11 -70.81)"/><path class="cls-8" d="M98.26,133.89l-7.35-4.15c-.56-.33-1.19-.79-1.74-.27s-.16,1.2.16,1.76q3.39,6,6.8,12c.26.44.64.82.58,1.39l-6.91.06c-.57,0-1.2.12-1.26-.73q0-7.69.08-15.39l5,0a6,6,0,0,0,3.21,3.61A2.52,2.52,0,0,1,98.26,133.89Z" transform="translate(-2.11 -70.81)"/><path class="cls-9" d="M29.32,132.68v48.86h-.38V132.68Z" transform="translate(-2.11 -70.81)"/><path class="cls-6" d="M14.07,200c4.31,0,8.62-.07,12.93-.07H99c.51,0,1,0,1.53.08-.58.62-1.33.35-2,.35q-41.22,0-82.45,0C15.4,200.33,14.64,200.6,14.07,200Z" transform="translate(-2.11 -70.81)"/><path class="cls-8" d="M136.06,128.63c0,2.49,0,5-.05,7.48v0h-.58v0l-5.62-7.49Z" transform="translate(-2.11 -70.81)"/><path class="cls-8" d="M89,171l6,5.23c-2,.88-4,0-6,.46a.69.69,0,0,0-.34-.09l-.12-.15c0-1.84,0-3.67,0-5.5Z" transform="translate(-2.11 -70.81)"/><path class="cls-8" d="M108.35,140.39c-2.14-2.15-5-3.2-7.47-4.8A10.19,10.19,0,0,1,98.52,134c1.25-.65,2.1-.37,3.15.7,1.93,2,4.63,2.92,6.92,4.44.51.33,1.36.16,2,.22A3.22,3.22,0,0,1,108.35,140.39Z" transform="translate(-2.11 -70.81)"/><path class="cls-1" d="M89,171l-.49,0a30.73,30.73,0,0,0,0-3.59c-.07-.79.31-.87.84-.87q5.85,0,11.7,0a1.32,1.32,0,0,1,1.1.67c-3.6,0-7.21.15-10.81,0-2.07-.11-2.65.64-2.37,2.5A8.68,8.68,0,0,1,89,171Z" transform="translate(-2.11 -70.81)"/><path class="cls-6" d="M121.87,171V140.91c.49.47.33,1.08.33,1.64q0,13.39,0,26.8C122.2,169.91,122.37,170.52,121.87,171Z" transform="translate(-2.11 -70.81)"/><path class="cls-6" d="M88.62,128.58q0,7.69-.08,15.39c-.55-.61-.31-1.35-.32-2,0-3.79,0-7.58,0-11.38C88.22,129.89,87.93,129.12,88.62,128.58Z" transform="translate(-2.11 -70.81)"/><path class="cls-10" d="M32.7,128.42c1.65.92,1.48,2.46,1.37,4A5.94,5.94,0,0,1,32.7,128.42Z" transform="translate(-2.11 -70.81)"/><path class="cls-10" d="M34.07,181.81c.16,1.54.14,3-1.49,3.84A7.38,7.38,0,0,1,34.07,181.81Z" transform="translate(-2.11 -70.81)"/><path class="cls-6" d="M88.61,181.8c0,.06,0,.14,0,.19a1.45,1.45,0,0,1-.23.19c-.13-1.93-.48-3.88.22-5.78l.12.15C88.66,178.3,88.63,180.05,88.61,181.8Z" transform="translate(-2.11 -70.81)"/><path class="cls-1" d="M88.61,181.8c0-1.75,0-3.5.07-5.25a.69.69,0,0,1,.34.09c0,1.74,0,3.47,0,5.2Z" transform="translate(-2.11 -70.81)"/><path class="cls-10" d="M31.81,127.76l.88.67C32.13,128.56,31.85,128.32,31.81,127.76Z" transform="translate(-2.11 -70.81)"/><path class="cls-11" d="M164.7,150.16c.39,1.33,1.67,1,2.21.68,1.14-.57,2.05,0,3.07-.08-.06.74-.51.84-.93,1a.66.66,0,0,0-.4.94c.23.63.54.2.86,0a2.65,2.65,0,0,1,.71-.19c.21,1.6,2.49.86,2.76,2.47.18,1.07,1.59.21,2,1.1,1.87-.89,2.9,1,4.36,1.4a6.09,6.09,0,0,0,1.61.38.86.86,0,0,1-1.41.66c-1.51-1.12-3.18-.47-4.77-.66-.18-.95-.7-.81-1.39-.51.36.75.94.41,1.39.51v.77H173.2c-1.9-.53-3.5,1-5.36.78a26.86,26.86,0,0,1-5.6-1.33c-.58-.19-1.43-.43-1.54.06-.42,1.88-1.3.85-2.16.52s-1.89.51-2.4-.91c-.45-1.22-1.53-.59-2.93-.47,1.15.62,1.64,1.22,1.45,2.12-1,0-2.06,0-5.06-.17-.64.36.4,0,1.39.19.79.15.64-.6,1-.88a.35.35,0,0,0-.26-.63c-.6.05-1.35-.92-1.44-.45-.28,1.48-1.6.94-.67,1.77,2,1.07,2.93.81,3.46,1.35a3,3,0,0,1-2.79.14,5.52,5.52,0,0,0-5.4.13c-.43.25-1,.22-1,.94s.64.65,1.15.7c.29,0,.58.1,1.22.23a3.27,3.27,0,0,1-3,.58c-.39-.11-1-.2-1.19.32-.39.85.86.25.79,1-1.53.33-2.64,1.78-4.7,1.6-.16-.05,0,.08.13.09.4,0,0-.22.11-.31l-.4-.24c0,.1-.08.19.16.46-.14,1.43-1.12.86-1.93.71-.49-.09-.94-.47-1.43-.52s-1.36-.36-1.66.48.66.83.85,1.24,1.56.25,1,1.24c-.37.68-1,.76-1.55.17s-1.8,1.81-2.32-.69c-.38,1.69-.33,3.34-2.63,3.34.41-1.64-.07-3.31-.07-5,0-10.35,0-20.69.05-31,0-.59-1-2.21,1.16-1.79.64.13-.06-1.31.82-1.82.72,1.89-.08,3.9.52,6,1-.84.14-2.08.94-2.94.54.65.35,1.3.37,1.89s.24,1.09,1,1.1,1.33,0,1.31-1c0-.7.1-1.29.88-1.5v0c0,.28-.14.68.29.68s.3-.4.29-.68v0l.88.15c.1.45-.24,1,.51,1.4.3-.69.44-1.22-.51-1.4a7.58,7.58,0,0,0,.52-5.55c-.13-.5-.3-1.08.37-1.3s1.24-.24,1.38.56.77.89,1.43.88c1.16,0,.38-.69.44-1.14s.6-.39.92-.25c.56.26,1.08.61,1.63.93-.1,1.08-1.24,1.05-2.34,2,3.26-.57,4.48,1.57,6.09,3.1.57.54,1.07,1.14,1.93.33s1.41-.37,1.53.71c0,.37,0,1.06.29,1,2-.19,2,1.51,2.61,2.61a1.48,1.48,0,0,0,1.25.74,2.26,2.26,0,0,1,2.09,1.66,1.84,1.84,0,0,0,1.85,1.4c2.9,0,3.5.63,3.49,3.66,0,1.63.57,2.59,2.33,2.52ZM130.11,163h.38V145h-.38Zm39.35-5.07c.69-.65.9-1.76,1.95-2a2.31,2.31,0,0,0-.24-.47c-.42-.49-1.14-1.11-1.52-.43s-1.38,1.42-.89,2.49C168.84,157.74,169.17,157.79,169.46,157.94Zm-25.11-.77c-.73.74-.49,1.37-.27,2.5A2.36,2.36,0,0,0,144.35,157.17Zm-8.38,7c0-.1-.06-.27-.14-.3s-.21.06-.31.11,0,.27.13.3S135.86,164.21,136,164.16Z" transform="translate(-2.11 -70.81)"/><path class="cls-11" d="M184,120.05V118.5c.67-.09,1.22-1.63,2.09-.09.2.34.93,0,1-.68v-2.31c.07-1.33,1.18-2.45.77-3.87-.3-1,.57-1.52.77-2.31,1.51.09,1.57,1,1.16,2.11-.5,1.42-1.34,2.8-1.48,4.25a133.73,133.73,0,0,0-.44,15.51c0,.38-.22.94.76,1.06,0-3.4,0-6.77,0-10.13,0-.57-.15-1.4.16-1.67,1.39-1.24.92-2.8,1-4.28,0-.86,0-1.73,1.17-1.83v5.79c-1.53,0-1.53,1.09-1.54,2.14,0,3.4,0,6.81,0,10.22v3.46c0,.63-.13,1.29.62,1.67.41.22,1.06.38.76,1.09-.14.35-.52.32-.83.33a1.22,1.22,0,0,1-1.25-.71c-1.62-3.35-1.62-3.35-1.62-7.9,0-2.87,0-5.75,0-8.63,0-.64.3-1.49-.77-1.67a.7.7,0,0,0-.77-.77c-1.18.24-.75,1.2-.75,1.88,0,7.13,0,14.26,0,21.39,0,.65.2,1.37-.77,1.94Z" transform="translate(-2.11 -70.81)"/><path class="cls-11" d="M215.69,111.55a8.49,8.49,0,0,1,2.85-4.59c.22-.21.67-.26.77-.49.6-1.34,1.15-2.69,2.56-3.41h0c1.25-.81,1.42-2.7,3.1-3.09v1.55c-1.41.53-.82,1.6-.49,2.38s.37,1.45-.41,2-1.24.22-1.5-.67c-.17-.62-.54-.28-.84,0-.47.41-.81.84-.42,1.48.25.4.91.1,1.14.8-.9.21-1.25.75-1.47,1.75-.18.85-.77,2.34-2.52,1-1.15-.84-1.19.48-1.22,1.31Z" transform="translate(-2.11 -70.81)"/><path class="cls-11" d="M215.69,125.84v.38c-.28.06-.66.06-.57.47,0,.14.37.21.56.31-.06.61.27,1.41-.76,1.54-.21-.79-1.07-1.36-.77-2.32v-2.31c-.05-.32-.15-.7-.51-.71-2.26,0-1.88-1.47-1.65-3.1.91.54,1.36,1.42,2.38,1.61s.73,1.25.63,1.94A2,2,0,0,0,215.69,125.84Z" transform="translate(-2.11 -70.81)"/><path class="cls-11" d="M198.7,173.32c-1.43.29-1.55.27-3.48-.78,0-.77.81-1.53,0-2.31-.4-.39-.61-1-.11-1.3s.93.14,1.27.54a.69.69,0,0,0,.77.76C197.2,171.5,199.29,171.74,198.7,173.32Z" transform="translate(-2.11 -70.81)"/><path class="cls-11" d="M207.19,119.66a1.46,1.46,0,0,1,1-1.63c.76-.27.33.81,1,1,.41-.63.7-1.7,1.89-1.32h0v1.55a3,3,0,0,1-2.32.77l-.39-.39Z" transform="translate(-2.11 -70.81)"/><path class="cls-4" d="M185.77,150.67V145l.31,0v5.64Z" transform="translate(-2.11 -70.81)"/><path class="cls-11" d="M217.24,111.56c2.43.51,1.43,2.41,1.55,3.86-1-.13-.7-1-.78-1.55a.7.7,0,0,0-.77-.77Z" transform="translate(-2.11 -70.81)"/><path class="cls-11" d="M180.15,161.74h-2.93c.23-1.07.94-.64,1.39-.77.18-.06.41-.06.53-.17.39-.37.85-.84,1.33-.49C181.23,160.88,179.89,161.17,180.15,161.74Z" transform="translate(-2.11 -70.81)"/><path class="cls-11" d="M185.56,154c.35.91,1.23,1.73.39,2.83.12-1-2.28-1.57-.39-2.83Z" transform="translate(-2.11 -70.81)"/><path class="cls-4" d="M214.15,123.91v2.31l-1.88.88C213.33,125.85,212.93,124.51,214.15,123.91Z" transform="translate(-2.11 -70.81)"/><path class="cls-11" d="M196.38,135.49c.27-1.09.86-.92,1.54-.39v1.16h-.77A.7.7,0,0,1,196.38,135.49Z" transform="translate(-2.11 -70.81)"/><path class="cls-11" d="M177.45,159.43h-.77c-.68-.17-1.68.46-1.94-.78h0c.81,0,1.63,0,2.45,0C177.69,158.73,177.84,159,177.45,159.43Z" transform="translate(-2.11 -70.81)"/><path class="cls-4" d="M204.84,130.9a.64.64,0,0,1-.73.68c-.57,0-.78-.34-.72-.86s.39-.62.81-.58S204.85,130.46,204.84,130.9Z" transform="translate(-2.11 -70.81)"/><path class="cls-4" d="M209.42,147.87c.53,0,.84.22.82.77,0,.25-.12.62-.38.5a2.33,2.33,0,0,1-.93-.86C208.81,148.07,209.14,147.89,209.42,147.87Z" transform="translate(-2.11 -70.81)"/><path class="cls-4" d="M208.61,188.32c.08.56-.16.75-.5.79s-.79,0-.82-.54a.49.49,0,0,1,.45-.52A.79.79,0,0,1,208.61,188.32Z" transform="translate(-2.11 -70.81)"/><path class="cls-4" d="M216.86,120.26c.34.07.34.34.34.58s-.13.65-.5.67-.59-.22-.43-.61S216.47,120.29,216.86,120.26Z" transform="translate(-2.11 -70.81)"/><path class="cls-4" d="M197.15,170.23a.69.69,0,0,1-.77-.76c.44.07,1-.23,1.3.28S197.41,170.16,197.15,170.23Z" transform="translate(-2.11 -70.81)"/><path class="cls-11" d="M206.42,138.58a.71.71,0,0,1,.75.84c0,.25-.11.55-.4.49s-.24-.36-.35-.56Z" transform="translate(-2.11 -70.81)"/><path class="cls-4" d="M197.15,136.26h.77c0,.47.11,1-.32,1.38C196.92,137.28,197.25,136.71,197.15,136.26Z" transform="translate(-2.11 -70.81)"/><path class="cls-4" d="M194.06,136.26c.95.18.81.71.51,1.4-.74-.36-.41-.95-.51-1.4Z" transform="translate(-2.11 -70.81)"/><path class="cls-4" d="M185.56,154c.1-.45-.23-1,.51-1.39.3.68.45,1.21-.51,1.39Z" transform="translate(-2.11 -70.81)"/><path class="cls-11" d="M214.92,111.56h.77v1.54h-.77Z" transform="translate(-2.11 -70.81)"/><path class="cls-4" d="M211.06,119.28v-1.55a.72.72,0,0,1,.74.87C211.77,119.07,211.47,119.23,211.06,119.28Z" transform="translate(-2.11 -70.81)"/><path class="cls-4" d="M205.49,175.92c-.05.11-.1.21-.14.32-.11-.05-.27-.07-.3-.14s.07-.21.12-.32Z" transform="translate(-2.11 -70.81)"/><path class="cls-4" d="M217.24,113.1a.7.7,0,0,1,.77.77A.7.7,0,0,1,217.24,113.1Z" transform="translate(-2.11 -70.81)"/><path class="cls-4" d="M209.52,204.94a.65.65,0,0,1-.76-.74A.71.71,0,0,1,209.52,204.94Z" transform="translate(-2.11 -70.81)"/><path class="cls-4" d="M214.92,113.1h.77v.77A.7.7,0,0,1,214.92,113.1Z" transform="translate(-2.11 -70.81)"/><path class="cls-11" d="M215.69,113.87v-.77c.2.1.55.17.58.3C216.36,113.82,216,113.82,215.69,113.87Z" transform="translate(-2.11 -70.81)"/><path class="cls-11" d="M208.74,140.12v.77c-.2-.09-.54-.16-.57-.3C208.07,140.18,208.46,140.18,208.74,140.12Z" transform="translate(-2.11 -70.81)"/><path class="cls-4" d="M205.5,123.63c-.1,0-.24.14-.31.11s-.1-.2-.14-.31.24-.14.32-.11S205.46,123.52,205.5,123.63Z" transform="translate(-2.11 -70.81)"/><path class="cls-4" d="M185.56,119.28a.7.7,0,0,1,.77.77A.71.71,0,0,1,185.56,119.28Z" transform="translate(-2.11 -70.81)"/><path class="cls-4" d="M193.14,163.78c-.11,0-.24.14-.32.11s-.09-.2-.13-.31c.11,0,.24-.14.32-.11S193.1,163.67,193.14,163.78Z" transform="translate(-2.11 -70.81)"/><path class="cls-4" d="M206.42,138.58v.77c-.2-.1-.54-.17-.57-.3C205.76,138.63,206.14,138.64,206.42,138.58Z" transform="translate(-2.11 -70.81)"/><path class="cls-4" d="M208.35,119.66l.39.39Z" transform="translate(-2.11 -70.81)"/><path class="cls-11" d="M120.69,133.26c-.74-.25-1.77-1.76-2,1.07-.1-2.56-1.25-3-2.92-2.72-.54.08-1.25.11-1.26-.75s.71-.7,1.25-.78c.93-.14,1.81-.46,2.51.62a2.12,2.12,0,0,0,1.6.86c1.79-.08,1.13.85.81,1.68Z" transform="translate(-2.11 -70.81)"/><path class="cls-3" d="M174.74,158.65c.26,1.24,1.26.61,1.94.78-.83,1.57-2.25.69-3.35.64-.83,0,0-.92-.13-1.41Z" transform="translate(-2.11 -70.81)"/><path class="cls-11" d="M124.94,130.85c-.51,0-1.09,0-1.13-.69s.59-.83,1.17-.83,1,.07,1,.78S125.46,130.84,124.94,130.85Z" transform="translate(-2.11 -70.81)"/><path class="cls-11" d="M116.28,134.18c0,.31-.2.51-.45.46a1.4,1.4,0,0,1-1.09-1.11c-.06-.29.32-.32.56-.32C116,133.21,116.1,133.71,116.28,134.18Z" transform="translate(-2.11 -70.81)"/><path class="cls-11" d="M130.11,174c0-.78.16-1.22.74-1.37a.56.56,0,0,1,.41.26C131.16,173.42,130.76,173.71,130.11,174Z" transform="translate(-2.11 -70.81)"/><path class="cls-11" d="M154.61,159.42c.52,0,1-.11,1.52.43C155.33,160.36,154.88,160.25,154.61,159.42Z" transform="translate(-2.11 -70.81)"/><path class="cls-3" d="M191,114.26c-1.2.1-1.13,1-1.17,1.83-.06,1.48.41,3-1,4.28-.31.27-.16,1.1-.16,1.67,0,3.36,0,6.73,0,10.13-1-.12-.75-.68-.76-1.06a133.73,133.73,0,0,1,.44-15.51c.14-1.45,1-2.83,1.48-4.25.41-1.13.35-2-1.16-2.11-.06-.92,0-1.63,1.29-1.55s1,.89,1,1.62C191,111,191,112.61,191,114.26Z" transform="translate(-2.11 -70.81)"/><path class="cls-3" d="M189.43,132.41c0-3.41,0-6.82,0-10.22,0-1,0-2.16,1.54-2.14,0,3.51,0,7,0,10.53C191,131.69,190.77,132.5,189.43,132.41Z" transform="translate(-2.11 -70.81)"/><path class="cls-3" d="M187.88,111.55c.41,1.42-.7,2.54-.77,3.87q-1.8,1.15,0,2.31c-.07.66-.8,1-1,.68-.87-1.54-1.42,0-2.09.09a.7.7,0,0,1-.77-.77,1.88,1.88,0,0,0,1.54-1.93C184.77,113.63,186.51,112.72,187.88,111.55Z" transform="translate(-2.11 -70.81)"/><path class="cls-11" d="M164.7,150.16c.3-1,1.22-1.47,1.92-2.28.65,2.23.62,2.26-1.92,2.28Z" transform="translate(-2.11 -70.81)"/><path class="cls-3" d="M198.7,131.24c-1.09-.25-.81-.7-.24-1.29s1.33-.7,1.2-2.06c.74,1.13.8,1.74,0,2.27-.41.28-1,.44-1,1.08Z" transform="translate(-2.11 -70.81)"/><path class="cls-11" d="M184.79,115.8a1.88,1.88,0,0,1-1.54,1.93A1.5,1.5,0,0,1,184.79,115.8Z" transform="translate(-2.11 -70.81)"/><path class="cls-3" d="M164.67,74.61c-.14,1.22-.85,2.4.66,3,.12.05.16.49.12.73-.5,3,.56,5.81,1,8.63.35,2.16.33,4.45,1.1,6.66.51,1.48.28,3.26.74,5a40.67,40.67,0,0,1,1.06,7.44c.09,1.26-.36,1.72-1.63,1.67-2.06-.09-4.12,0-6.17,0-.54,0-1.46.16-1.39-.6.17-2.06-1.55-3.83-.32-6.22.83-1.61.22-4,1.45-5.76.32-.47-.55-1.16-.48-1.93.34-3.55.48-7.09,2.07-10.44.81-1.72.21-3.8.26-5.72A2.13,2.13,0,0,1,164.67,74.61Z" transform="translate(-2.11 -70.81)"/><path class="cls-3" d="M225,101.52V100c1.57.18.89-1.24.91-1.69.05-1.36-1.24,0-1.7-.63,1.41-1.73,2.81-3.47,4.34-5.36.89,2.09-.45,3.64-.86,5.29a10.65,10.65,0,0,0-.4,1.62.71.71,0,0,0-.75.78l0,.76Z" transform="translate(-2.11 -70.81)"/><path class="cls-3" d="M215.68,127c-.19-.1-.53-.17-.56-.31-.09-.41.29-.41.57-.47Z" transform="translate(-2.11 -70.81)"/><path class="cls-1" d="M221.87,103.06c-.25,0-.53,0-.57-.36,0-.07.14-.22.21-.22.33,0,.32.33.36.58Z" transform="translate(-2.11 -70.81)"/><path class="cls-4" d="M226.51,100a.71.71,0,0,1,.75-.78A.69.69,0,0,1,226.51,100Z" transform="translate(-2.11 -70.81)"/><path class="cls-4" d="M136,136.14c0,.28.14.68-.29.68s-.31-.4-.29-.68Z" transform="translate(-2.11 -70.81)"/><path class="cls-4" d="M130.11,163V145h.38v18Z" transform="translate(-2.11 -70.81)"/><path class="cls-4" d="M169.46,157.94c-.29-.15-.62-.2-.7-.37-.49-1.07.48-1.77.89-2.49s1.1-.06,1.52.43a2.31,2.31,0,0,1,.24.47C170.36,156.18,170.15,157.29,169.46,157.94Z" transform="translate(-2.11 -70.81)"/><path class="cls-4" d="M144.59,159.8c2.12-1.66,4.82-.29,5.39-4,.17-1.18,1.71,1.26,2.94,1.13.8-.08,1.18.94.52,1.61s-.38,2.57-2,2.2C149.43,160.24,147.3,161.14,144.59,159.8Z" transform="translate(-2.11 -70.81)"/><path class="cls-4" d="M144.35,157.17a2.36,2.36,0,0,1-.27,2.5C143.86,158.54,143.62,157.91,144.35,157.17Z" transform="translate(-2.11 -70.81)"/><path class="cls-4" d="M136.89,136.26c1,.18.81.71.51,1.4-.75-.36-.41-.95-.51-1.4Z" transform="translate(-2.11 -70.81)"/><path class="cls-4" d="M174.74,157.88c-.45-.1-1,.24-1.39-.51.69-.3,1.21-.44,1.39.51Z" transform="translate(-2.11 -70.81)"/><path class="cls-4" d="M137.83,166.12l.14-.33.4.24c-.08.09.29.36-.11.31A1.17,1.17,0,0,1,137.83,166.12Z" transform="translate(-2.11 -70.81)"/><path class="cls-4" d="M136,164.16c-.11.05-.24.15-.32.11s-.09-.2-.13-.3.24-.15.31-.11S135.93,164.06,136,164.16Z" transform="translate(-2.11 -70.81)"/><path class="cls-4" d="M187.11,117.73q-1.8-1.16,0-2.31Z" transform="translate(-2.11 -70.81)"/><path class="cls-4" d="M131.49,166.27c2.12-1.66,4.82-.3,5.39-4,.18-1.19,1.71,1.26,2.94,1.13.81-.08,1.18.94.52,1.6s-.38,2.58-2,2.21C136.33,166.71,134.21,167.61,131.49,166.27Z" transform="translate(-2.11 -70.81)"/><path class="cls-4" d="M269.3,203.48c1.47-1.16,3.34-.2,3.73-2.84.13-.83,1.19.89,2,.8.56-.06.82.66.36,1.13s-.26,1.81-1.39,1.54C272.66,203.79,271.18,204.42,269.3,203.48Z" transform="translate(-2.11 -70.81)"/><path class="cls-4" d="M273.82,202.64c1.59-.55,3.61-.1,4-1.35.13-.39,1.28.42,2.2.38.61,0,.89.31.4.53s-.29.86-1.51.74C277.45,202.79,275.85,203.08,273.82,202.64Z" transform="translate(-2.11 -70.81)"/><path class="cls-4" d="M259.41,148.49c3-2.47,7.8-3.59,7.77-6.18,0-.82,3.11-.48,5.08-1.42,1.3-.63,2.17-.3,1.27.56s0,1.77-2.72,2.71C267.43,145.31,264.18,147.35,259.41,148.49Z" transform="translate(-2.11 -70.81)"/></svg>